<?xml version="1.0" encoding="utf-8"?>
<!-- Generator: Adobe Illustrator 25.4.1, SVG Export Plug-In . SVG Version: 6.00 Build 0)  -->
<svg version="1.1" id="Layer_1" xmlns="http://www.w3.org/2000/svg" xmlns:xlink="http://www.w3.org/1999/xlink" x="0px" y="0px"
	 viewBox="0 0 1200 1200" style="enable-background:new 0 0 1200 1200;" xml:space="preserve">
<style type="text/css">
	.st0{fill:#21ADFF;}
	.st1{fill:#FFFFFF;}
</style>
<rect class="st0" width="1200" height="1200"/>
<path class="st1" d="M958.2,789.1c-1.8-22.4-17.7-37.9-42.7-43.8c-26.1-6.3-52.6-12.5-77.6-21.7c-19.1-7-37.5-17.7-54.4-28.7
	c-5.5-3.7-9.6-15.1-8.5-22.4c1.5-11.8,7.7-23.2,12.9-37.5c26.5,11.8,49.3,11.4,67.7-10.3c12.1-14.7,14.3-31.6,5.5-48.6
	c-14.7-28.7-40.1-29.4-66.2-23.5c-8.5-29.8-16.6-58.1-25.7-89.4c19.9-3.3,39.4-6.6,58.9-10.3c22.8-4,38.6-18.8,42.3-39.4
	c3.7-21.7-7-42.7-26.5-51.1c-21.7-9.6-45.2-2.9-60.3,17.7c-12.1,16.2-23.5,33.1-34.9,48.9c-20.6-18.8-37.5-36.4-56.3-51.1
	c-11.4-8.8-13.2-18-5.9-28c11.8-15.8,25-30.9,39-45.2c6.6-7,15.4-11.4,22.8-18c16.2-14.3,21.3-37.5,12.9-56.6
	c-7.4-17.3-29.1-31.6-45.6-29.8c-19.5,2.2-39.4,20.6-43.4,41.9c-1.8,10.7-0.7,22.1-2.9,32.7c-4.4,19.5-9.2,38.6-15.8,57.4
	c-2.2,5.5-11.8,13.2-16.2,12.5c-23.2-4.4-46.3-11-70.6-17.7c2.9-7.4,5.5-13.6,7.7-20.2c8.5-23.2,2.6-46-15.4-59.6
	c-17.7-12.9-40.1-12.5-56.3,0.4c-18.4,14.3-23.5,38.6-13.2,61.8c3.3,7.4,7,14.3,10.7,22.4c-16.2,5.1-30.2,9.2-43.4,14.3
	c-23.2,8.5-33.5,5.9-44.9-16.6c-5.9-11.4-9.9-24.3-13.2-36.8c-3.7-14.7-4-30.2-7.7-44.9c-7-27.2-35.3-42.7-61.4-33.8
	c-25,8.1-39,37.5-27.2,62.5c4.8,10.7,15.1,18.8,24.3,27.2c17.7,16.2,38.3,29.8,54.1,47.5c15.8,17.7,12.9,29.4-4,46.3
	c-8.8,8.8-16.2,19.1-25,27.6c-6.3,5.5-13.6,11-21.7,13.2c-33.5,8.5-47.8,39.7-31.3,70.6c11.8,22.1,9.2,27.2-15.1,31.6
	c-25.7,4.4-42.7,24.3-41.6,48.9c1.1,25.4,21,43.8,47.8,44.9c5.1,0.4,10.7,0.7,15.1,0.7c8.5,23.5,16.6,43.4,6.3,69.5
	c-11.8,29.1,15.4,56.3,48.6,54.8c38.3-1.8,56.3,25.7,38.6,59.6c-5.9,11.8-12.9,23.2-21.3,33.1c-18.4,21.3-37.5,42.3-57,62.5
	c-17.3,18-22.4,40.8-12.5,60.3c9.2,18,27.6,27.2,48.6,24.3c21.3-2.9,36-19.1,40.8-43.8c3.7-19.1,5.9-38.6,11.8-56.6
	c8.1-24.6,18-49.3,29.8-72.5c3.7-7.4,16.2-15.4,23.5-14.7c18,1.8,35.7,8.8,53.3,13.6c-0.7,47.1,16.2,71,48.6,69.5
	c32.7-1.8,46-25.4,41.6-75c13.2-5.1,27.6-8.8,40.1-15.8c15.8-8.8,23.5-2.2,26.9,12.1c5.1,22.1,9.2,44.5,13.6,66.9
	c4.4,21.7,20.6,37.2,41.9,40.1c19.9,2.6,39.4-7.7,47.5-25.7c9.2-19.9,4.4-43.8-13.2-58.1c-9.9-8.5-22.1-14-32.4-22.4
	c-13.2-11-25.4-23.9-38.6-36.4c12.9-12.1,22.8-20.6,32-30.2c25.7-26.5,34.2-29.4,64-6.3c29.8,22.8,57,50,83.9,76.5
	c18.4,18.4,38.6,25.4,59.2,16.2C949,827.7,960,809.3,958.2,789.1z M587.4,624.6c-2.2-1.5-4-2.9-5.9-4.4
	C583.4,621.7,585.6,623.2,587.4,624.6z M370.8,638.6c-17.7,0-33.8-15.8-32.7-32.7c0.7-16.2,10.7-25,26.5-25.7
	c16.9-1.1,34.2,15.1,34.2,31.6C399.1,626.1,386.2,638.6,370.8,638.6z M400.6,452.1c-0.4-35.3,30.9-68.4,64.7-68
	c26.9,0.4,46.7,22.1,46.3,50.4c-0.4,34.9-30.9,66.9-63.6,66.9C421.5,501.8,400.9,480.1,400.6,452.1z M623.8,756
	c-10.7,5.1-22.4,7.7-34.2,8.8c-37.9,4-76.9-6.6-107.4-28.7c-17.3-12.5-32.4-29.4-37.2-50.4c-5.9-26.9,9.6-50.4,33.8-60.7
	c56.3-23.9,124.7-3.3,162.2,44.1c9.2,11.8,16.9,25.4,16.6,40.1c-0.4,15.8-9.9,30.9-22.8,40.1C631.2,751.9,627.5,754.1,623.8,756z"/>
</svg>
