<svg xmlns="http://www.w3.org/2000/svg" viewBox="0 0 500 500" style="enable-background:new 0 0 500 500" xml:space="preserve"><radialGradient id="a" cx="250" cy="252" r="237.354" gradientTransform="matrix(1 0 0 -1 0 502)" gradientUnits="userSpaceOnUse"><stop offset="0" style="stop-color:#e5edfd"/><stop offset="1" style="stop-color:#092c74"/></radialGradient><path d="M473.9 368.2c-1.1-14-11-23.7-26.7-27.4-16.3-3.9-32.9-7.8-48.5-13.6-12-4.4-23.4-11-34-17.9-3.4-2.3-6-9.4-5.3-14 .9-7.4 4.8-14.5 8-23.4 16.6 7.4 30.8 7.1 42.3-6.4 7.6-9.2 9-19.8 3.4-30.3-9.2-17.9-25.1-18.4-41.4-14.7-5.3-18.6-10.3-36.3-16.1-55.9 12.4-2.1 24.6-4.1 36.8-6.4 14.3-2.5 24.1-11.7 26.4-24.6 2.3-13.6-4.4-26.7-16.6-32-13.6-6-28.3-1.8-37.7 11-7.6 10.1-14.7 20.7-21.8 30.6-12.9-11.7-23.4-22.8-35.2-32-7.1-5.5-8.3-11.3-3.7-17.5 7.4-9.9 15.6-19.3 24.4-28.3 4.1-4.4 9.7-7.1 14.3-11.3 10.1-9 13.3-23.4 8-35.4C346 7.9 332.5-1 322.1.1 310 1.5 297.5 13 295 26.3c-1.1 6.7-.5 13.8-1.8 20.5-2.8 12.2-5.7 24.1-9.9 35.9-1.4 3.4-7.4 8.3-10.1 7.8-14.5-2.8-29-6.9-44.1-11 1.8-4.6 3.4-8.5 4.8-12.6 5.3-14.5 1.6-28.7-9.7-37.2-11-8-25.1-7.8-35.2.2-11.5 9-14.7 24.1-8.3 38.6 2.1 4.6 4.4 9 6.7 14-10.1 3.2-18.9 5.7-27.1 9-14.5 5.3-20.9 3.7-28-10.3-3.7-7.1-6.2-15.2-8.3-23-2.3-9.2-2.5-18.9-4.8-28C114.8 13 97.1 3.3 80.8 8.8c-15.6 5.1-24.4 23.4-17 39.1 3 6.7 9.4 11.7 15.2 17 11 10.1 23.9 18.6 33.8 29.7s8 18.4-2.5 29c-5.5 5.5-10.1 12-15.6 17.2-3.9 3.4-8.5 6.9-13.6 8.3-20.9 5.3-29.9 24.8-19.5 44.1 7.4 13.8 5.7 17-9.4 19.8-16.1 2.8-26.7 15.2-26 30.6.7 15.9 13.1 27.4 29.9 28 3.2.2 6.7.5 9.4.5 5.3 14.7 10.3 27.1 3.9 43.5-7.4 18.2 9.7 35.2 30.3 34.3 23.9-1.1 35.2 16.1 24.1 37.2-3.7 7.4-8 14.5-13.3 20.7-11.6 13.2-23.5 26.3-35.7 39-10.8 11.3-14 25.5-7.8 37.7 5.7 11.3 17.2 17 30.3 15.2 13.3-1.8 22.5-12 25.5-27.4 2.3-12 3.7-24.1 7.4-35.4 5.1-15.4 11.3-30.8 18.6-45.3 2.3-4.6 10.1-9.7 14.7-9.2 11.3 1.1 22.3 5.5 33.3 8.5-.5 29.4 10.1 44.4 30.3 43.5 20.5-1.1 28.7-15.9 26-46.9 8.3-3.2 17.2-5.5 25.1-9.9 9.9-5.5 14.7-1.4 16.8 7.6 3.2 13.8 5.7 27.8 8.5 41.8 2.8 13.6 12.9 23.2 26.2 25.1 12.4 1.6 24.6-4.8 29.7-16.1 5.7-12.4 2.8-27.4-8.3-36.3-6.2-5.3-13.8-8.7-20.2-14-8.3-6.9-15.9-14.9-24.1-22.8 8-7.6 14.3-12.9 20-18.9 16.1-16.6 21.4-18.4 40-3.9 18.6 14.3 35.6 31.3 52.4 47.8 11.5 11.5 24.1 15.9 37 10.1 11.9-5.7 18.8-17.2 17.7-29.8zm-367.2-94.1c-11 0-21.2-9.9-20.5-20.5.5-10.1 6.7-15.6 16.6-16.1 10.6-.7 21.4 9.4 21.4 19.8.2 9-7.8 16.8-17.5 16.8zm18.7-116.5c-.2-22.1 19.3-42.8 40.5-42.5 16.8.2 29.2 13.8 29 31.5-.2 21.8-19.3 41.8-39.8 41.8-16.6.2-29.5-13.4-29.7-30.8zm139.5 189.9c-6.7 3.2-14 4.8-21.4 5.5-23.7 2.5-48-4.1-67.1-17.9-10.8-7.8-20.2-18.4-23.2-31.5-3.7-16.8 6-31.5 21.2-37.9 35.2-14.9 77.9-2.1 101.4 27.6 5.7 7.4 10.6 15.9 10.3 25.1-.2 9.9-6.2 19.3-14.3 25.1-2.3 1.4-4.6 2.8-6.9 4z" style="fill:url(#a)"/></svg>