<svg xmlns="http://www.w3.org/2000/svg" viewBox="0 0 1236.7 217.4" xml:space="preserve"><path d="M299.9 86.9c-.3 4-1.2 7.8-2.7 11.2s-3.6 6.3-6.3 8.7c-2.7 2.4-6 4.3-9.8 5.7-3.8 1.4-8.2 2.1-13.2 2.1-5.1 0-9.7-.9-13.8-2.7-4.1-1.8-7.5-4.3-10.3-7.6-2.8-3.3-5-7.3-6.5-12.1-1.5-4.7-2.3-10-2.3-15.9v-5.2c0-5.9.8-11.2 2.4-15.9 1.6-4.7 3.8-8.8 6.6-12.1 2.9-3.3 6.3-5.9 10.4-7.7s8.6-2.7 13.7-2.7c5 0 9.3.7 13.2 2.1 3.8 1.4 7 3.4 9.7 5.9s4.7 5.5 6.2 8.9 2.4 7.2 2.8 11.2h-16.4c-.2-2.4-.6-4.5-1.2-6.3s-1.6-3.4-2.8-4.6c-1.2-1.2-2.8-2.2-4.6-2.8-1.9-.6-4.2-1-6.9-1-5.5 0-9.7 2-12.4 6-2.7 4-4.1 10.3-4.1 18.7v5.4c0 4.1.3 7.7.9 10.8.6 3.1 1.5 5.7 2.8 7.8 1.3 2.1 3 3.6 5 4.7 2.1 1 4.5 1.6 7.5 1.6 2.6 0 4.8-.3 6.7-.9 1.9-.6 3.4-1.5 4.7-2.7 1.3-1.2 2.2-2.7 2.9-4.5.7-1.8 1.1-3.9 1.3-6.2l16.5.1zM376.1 75.4c0 6.1-.8 11.5-2.5 16.4-1.6 4.8-3.9 8.9-6.9 12.3s-6.5 5.9-10.7 7.7-8.7 2.7-13.7 2.7-9.6-.9-13.7-2.7-7.7-4.4-10.7-7.7c-3-3.4-5.4-7.4-7-12.3-1.7-4.8-2.5-10.3-2.5-16.4v-3.5c0-6.1.8-11.5 2.5-16.4 1.7-4.8 4-9 7-12.4s6.6-6 10.7-7.8 8.7-2.7 13.7-2.7 9.6.9 13.7 2.7 7.7 4.4 10.7 7.8c3 3.4 5.3 7.5 7 12.4 1.7 4.8 2.5 10.3 2.5 16.4v3.5h-.1zm-16.7-3.6c0-8.3-1.5-14.7-4.5-19s-7.3-6.5-12.8-6.5-9.8 2.2-12.8 6.5-4.5 10.7-4.5 19v3.6c0 4.2.4 7.8 1.2 11 .8 3.2 1.9 5.9 3.4 8 1.5 2.2 3.3 3.8 5.4 4.9 2.2 1.1 4.6 1.7 7.4 1.7 5.5 0 9.8-2.2 12.7-6.6s4.4-10.7 4.4-19.1l.1-3.5zM416.2 93.7l18-59.9h18.3l-27.7 79.6h-17.1L380 33.8h18.2l18 59.9zM477.4 113.4H461V33.8h16.4v79.6zM492.6 113.4V33.8h24.5c5.4 0 10.3.9 14.7 2.8 4.5 1.8 8.3 4.4 11.5 7.8 3.2 3.3 5.7 7.3 7.5 12s2.7 9.8 2.7 15.5v3.6c0 5.7-.9 10.9-2.7 15.5s-4.3 8.6-7.5 12-7.1 5.9-11.6 7.7c-4.5 1.8-9.4 2.7-14.8 2.7h-24.3zm16.5-66.3v53.2h7.9c6.5 0 11.4-2.1 14.8-6.4 3.4-4.3 5.1-10.4 5.1-18.3v-3.7c0-8.1-1.7-14.2-5-18.4-3.4-4.2-8.3-6.3-14.7-6.3h-8.1v-.1zM595.1 85.7h-30.8V73h30.8v12.7zM645.6 113.4h-15.8V52.5l-18.9 5.9V45.5l33-11.8h1.7v79.7zM683.7 101c4 0 7.5-.4 10.4-1.3 3-.9 5.4-2.1 7.5-3.7s3.6-3.7 4.7-6.1c1.1-2.4 1.8-5.2 2.1-8.3-1.9 1.9-4.1 3.3-6.5 4.4s-5.1 1.6-7.9 1.6c-3.8 0-7.1-.7-10-2.1s-5.3-3.2-7.3-5.6-3.5-5.2-4.5-8.5-1.5-6.8-1.5-10.6c0-3.9.6-7.5 1.9-10.9 1.3-3.4 3-6.4 5.4-8.9 2.3-2.6 5.1-4.6 8.4-6.1 3.3-1.5 7-2.2 11.1-2.2s7.8.8 11.1 2.4c3.3 1.6 6.2 3.8 8.5 6.6s4.1 6.3 5.4 10.3c1.3 4 1.9 8.4 1.9 13.3v5.5c0 6.5-.8 12.5-2.5 17.8s-4.2 9.9-7.6 13.7c-3.4 3.8-7.6 6.8-12.7 8.8-5.1 2.1-11 3.1-17.8 3.1h-1.3V101h1.2zm14.1-25.4c2.6 0 4.7-.7 6.6-2 1.8-1.3 3.2-2.9 4.2-4.8v-6.5c0-2.8-.3-5.3-.8-7.4-.6-2.1-1.4-3.9-2.4-5.3s-2.2-2.5-3.6-3.1c-1.4-.7-2.9-1-4.5-1-1.8 0-3.3.4-4.6 1.3-1.3.9-2.5 2-3.4 3.4s-1.6 3-2.1 4.9c-.5 1.8-.7 3.7-.7 5.7s.2 4 .7 5.7c.5 1.8 1.2 3.4 2.1 4.7s2.1 2.4 3.5 3.2c1.4.8 3.1 1.2 5 1.2zM270.7 169c-.6 5.1-2.4 8.9-5.4 11.6-3.1 2.7-7.2 4-12.3 4-3.6 0-6.7-.9-9.5-2.7-2.7-1.8-4.9-4.3-6.4-7.6s-2.3-7-2.3-11.2V157c0-4.3.7-8.1 2.2-11.4 1.5-3.3 3.6-5.8 6.5-7.6 2.8-1.8 6-2.7 9.7-2.7 5.1 0 9.2 1.4 12.2 4.2s4.7 6.6 5.2 11.5h-4.1c-1-8.2-5.4-12.2-13.3-12.2-4.4 0-7.8 1.6-10.4 4.9-2.6 3.3-3.9 7.8-3.9 13.5v5.9c0 5.5 1.3 10 3.8 13.3s5.9 5 10.2 5c4.2 0 7.4-1 9.6-3.1 2.2-2 3.5-5.1 4-9.2l4.2-.1zM320.5 162.6c0 4.4-.8 8.3-2.3 11.6s-3.7 5.9-6.5 7.7-6.1 2.7-9.8 2.7c-5.6 0-10.1-2-13.6-6s-5.2-9.4-5.2-16.2v-4.9c0-4.4.8-8.3 2.3-11.6 1.6-3.4 3.7-6 6.6-7.8 2.8-1.8 6.1-2.7 9.8-2.7s7 .9 9.8 2.7 5 4.3 6.5 7.6 2.3 7 2.4 11.3v5.6zm-4.1-5.2c0-5.8-1.3-10.3-3.9-13.6s-6.2-4.9-10.8-4.9c-4.5 0-8 1.6-10.7 4.9-2.7 3.3-4 7.9-4 13.8v5c0 5.7 1.3 10.2 4 13.5 2.6 3.3 6.2 5 10.8 5 4.6 0 8.2-1.6 10.8-4.9 2.6-3.3 3.9-7.9 3.9-13.7l-.1-5.1zM353.1 164h-14v20H335v-48h15.6c5.1 0 9.1 1.2 12 3.7s4.3 6 4.3 10.4c0 3.1-.9 5.8-2.7 8.1-1.8 2.4-4.2 4-7.3 4.9l12 20.5v.4h-4.3l-11.5-20zm-14-3.4h12.4c3.4 0 6.1-1 8.2-2.9s3.1-4.5 3.1-7.5c0-3.4-1.1-6-3.2-7.9-2.2-1.9-5.2-2.8-9.1-2.8h-11.4v21.1zM417.9 162.6c0 4.4-.8 8.3-2.3 11.6s-3.7 5.9-6.5 7.7-6.1 2.7-9.8 2.7c-5.6 0-10.1-2-13.6-6s-5.2-9.4-5.2-16.2v-4.9c0-4.4.8-8.3 2.3-11.6 1.6-3.4 3.7-6 6.6-7.8 2.8-1.8 6.1-2.7 9.8-2.7s7 .9 9.8 2.7 5 4.3 6.5 7.6 2.3 7 2.4 11.3v5.6zm-4.1-5.2c0-5.8-1.3-10.3-3.9-13.6s-6.2-4.9-10.8-4.9c-4.5 0-8 1.6-10.7 4.9-2.7 3.3-4 7.9-4 13.8v5c0 5.7 1.3 10.2 4 13.5 2.6 3.3 6.2 5 10.8 5 4.6 0 8.2-1.6 10.8-4.9 2.6-3.3 3.9-7.9 3.9-13.7l-.1-5.1zM468.3 184h-4.1l-27.6-41.1V184h-4.1v-48h4.1l27.6 41.1V136h4v48h.1zM510.8 170.5H489l-4.9 13.5h-4.3l18.2-48h3.9l18.2 48h-4.2l-5.1-13.5zm-20.5-3.4h19.3l-9.6-26.2-9.7 26.2zM543.1 178.1l.3 1 .3-1 15.1-42.1h4.5l-17.9 48h-3.9l-17.9-48h4.4l15.1 42.1zM579.6 184h-4.1v-48h4.1v48zM615 164h-14v20h-4.1v-48h15.6c5.1 0 9.1 1.2 12 3.7s4.3 6 4.3 10.4c0 3.1-.9 5.8-2.7 8.1-1.8 2.4-4.2 4-7.3 4.9l12 20.5v.4h-4.3L615 164zm-14-3.4h12.4c3.4 0 6.1-1 8.2-2.9 2.1-1.9 3.1-4.5 3.1-7.5 0-3.4-1.1-6-3.2-7.9-2.2-1.9-5.2-2.8-9.1-2.8H601v21.1zM677.4 136v32.8c0 3.2-.7 6-2.1 8.4-1.4 2.4-3.4 4.2-6 5.5s-5.5 1.9-8.8 1.9c-5.1 0-9.1-1.4-12.2-4.1-3-2.8-4.6-6.6-4.7-11.5v-33h4v32.5c0 4 1.2 7.2 3.5 9.4s5.4 3.3 9.4 3.3 7.1-1.1 9.4-3.4c2.3-2.2 3.4-5.4 3.4-9.4V136h4.1zM720.3 172.2c0-2.7-.9-4.8-2.8-6.3-1.9-1.6-5.3-3-10.3-4.4s-8.6-2.9-10.9-4.6c-3.3-2.3-4.9-5.4-4.9-9.2 0-3.7 1.5-6.7 4.5-9s6.9-3.4 11.6-3.4c3.2 0 6 .6 8.6 1.8 2.5 1.2 4.5 2.9 5.9 5.1 1.4 2.2 2.1 4.7 2.1 7.4H720c0-3.3-1.1-5.9-3.4-7.9-2.2-2-5.3-3-9-3s-6.6.8-8.8 2.5c-2.2 1.6-3.3 3.8-3.3 6.4 0 2.4 1 4.4 2.9 6 2 1.5 5.1 2.9 9.4 4.1 4.3 1.2 7.6 2.4 9.8 3.7s3.9 2.8 5 4.5c1.1 1.8 1.7 3.8 1.7 6.2 0 3.8-1.5 6.8-4.5 9.1s-7 3.4-12 3.4c-3.4 0-6.5-.6-9.3-1.8s-5-2.9-6.4-5.1c-1.5-2.2-2.2-4.7-2.2-7.5h4.1c0 3.4 1.3 6.1 3.8 8 2.5 2 5.9 2.9 10.1 2.9 3.7 0 6.7-.8 9-2.5 2.3-1.5 3.4-3.7 3.4-6.4z"/><radialGradient id="a" cx="97.52" cy="111.098" r="103.245" gradientTransform="matrix(1 0 0 -1 0 220)" gradientUnits="userSpaceOnUse"><stop offset="0" stop-color="#e5edfe"/><stop offset="1" stop-color="#092d74"/></radialGradient><path d="M194.9 160.3c-.5-6.1-4.8-10.3-11.6-11.9-7.1-1.7-14.3-3.4-21.1-5.9-5.2-1.9-10.2-4.8-14.8-7.8-1.5-1-2.6-4.1-2.3-6.1.4-3.2 2.1-6.3 3.5-10.2 7.2 3.2 13.4 3.1 18.4-2.8 3.3-4 3.9-8.6 1.5-13.2-4-7.8-10.9-8-18-6.4-2.3-8.1-4.5-15.8-7-24.3 5.4-.9 10.7-1.8 16-2.8 6.2-1.1 10.5-5.1 11.5-10.7 1-5.9-1.9-11.6-7.2-13.9-5.9-2.6-12.3-.8-16.4 4.8-3.3 4.4-6.4 9-9.5 13.3-5.6-5.1-10.2-9.9-15.3-13.9-3.1-2.4-3.6-4.9-1.6-7.6 3.2-4.3 6.8-8.4 10.6-12.3 1.8-1.9 4.2-3.1 6.2-4.9 4.4-3.9 5.8-10.2 3.5-15.4-2-4.7-7.9-8.6-12.4-8.1-5.3.6-10.7 5.6-11.8 11.4-.5 2.9-.2 6-.8 8.9-1.2 5.3-2.5 10.5-4.3 15.6-.6 1.5-3.2 3.6-4.4 3.4-6.3-1.2-12.6-3-19.2-4.8.8-2 1.5-3.7 2.1-5.5 2.3-6.3.7-12.5-4.2-16.2-4.8-3.5-10.9-3.4-15.3.1-5 3.9-6.4 10.5-3.6 16.8.9 2 1.9 3.9 2.9 6.1-4.4 1.4-8.2 2.5-11.8 3.9-6.3 2.3-9.1 1.6-12.2-4.5-1.6-3.1-2.7-6.6-3.6-10-1-4-1.1-8.2-2.1-12.2C38.7 5.8 31 1.6 23.9 4c-6.8 2.2-10.6 10.2-7.4 17 1.3 2.9 4.1 5.1 6.6 7.4 4.8 4.4 10.4 8.1 14.7 12.9s3.5 8-1.1 12.6c-2.4 2.4-4.4 5.2-6.8 7.5-1.7 1.5-3.7 3-5.9 3.6-9.1 2.3-13 10.8-8.5 19.2 3.2 6 2.5 7.4-4.1 8.6C4.4 94-.2 99.4.1 106.1c.3 6.9 5.7 11.9 13 12.2 1.4.1 2.9.2 4.1.2 2.3 6.4 4.5 11.8 1.7 18.9-3.2 7.9 4.2 15.3 13.2 14.9 10.4-.5 15.3 7 10.5 16.2-1.6 3.2-3.5 6.3-5.8 9-5 5.8-10.2 11.5-15.5 17-4.7 4.9-6.1 11.1-3.4 16.4 2.5 4.9 7.5 7.4 13.2 6.6 5.8-.8 9.8-5.2 11.1-11.9 1-5.2 1.6-10.5 3.2-15.4 2.2-6.7 4.9-13.4 8.1-19.7 1-2 4.4-4.2 6.4-4 4.9.5 9.7 2.4 14.5 3.7-.2 12.8 4.4 19.3 13.2 18.9 8.9-.5 12.5-6.9 11.3-20.4 3.6-1.4 7.5-2.4 10.9-4.3 4.3-2.4 6.4-.6 7.3 3.3 1.4 6 2.5 12.1 3.7 18.2 1.2 5.9 5.6 10.1 11.4 10.9 5.4.7 10.7-2.1 12.9-7 2.5-5.4 1.2-11.9-3.6-15.8-2.7-2.3-6-3.8-8.8-6.1-3.6-3-6.9-6.5-10.5-9.9 3.5-3.3 6.2-5.6 8.7-8.2 7-7.2 9.3-8 17.4-1.7 8.1 6.2 15.5 13.6 22.8 20.8 5 5 10.5 6.9 16.1 4.4 5.2-2.5 8.2-7.5 7.7-13zM94.1 115.6c-.6-.4-1.1-.8-1.6-1.2.5.4 1.1.8 1.6 1.2zm-58.9 3.8c-4.8 0-9.2-4.3-8.9-8.9.2-4.4 2.9-6.8 7.2-7 4.6-.3 9.3 4.1 9.3 8.6.1 3.9-3.4 7.3-7.6 7.3zm8.1-50.7c-.1-9.6 8.4-18.6 17.6-18.5 7.3.1 12.7 6 12.6 13.7-.1 9.5-8.4 18.2-17.3 18.2-7.2.1-12.8-5.8-12.9-13.4zm60.7 82.6c-2.9 1.4-6.1 2.1-9.3 2.4-10.3 1.1-20.9-1.8-29.2-7.8-4.7-3.4-8.8-8-10.1-13.7-1.6-7.3 2.6-13.7 9.2-16.5 15.3-6.5 33.9-.9 44.1 12 2.5 3.2 4.6 6.9 4.5 10.9-.1 4.3-2.7 8.4-6.2 10.9-1 .7-2 1.3-3 1.8z" fill="url(#a)"/><path d="M831.4 33h4v151.3h-4zM890.8 132.5V84.9h16.7c2.8 0 5.2.3 7.4.8s4 1.3 5.5 2.4 2.7 2.4 3.5 4.1c.8 1.6 1.2 3.6 1.2 5.8 0 1.1-.1 2.1-.4 3.1-.3 1-.7 1.9-1.2 2.8-.6.9-1.3 1.7-2.1 2.4-.9.7-1.9 1.3-3 1.8 1.4.3 2.6.9 3.6 1.6s1.8 1.5 2.5 2.5c.6.9 1.1 2 1.4 3.1.3 1.1.4 2.2.4 3.4 0 4.6-1.5 8.1-4.5 10.5-3 2.4-7.2 3.5-12.7 3.5h-18.3v-.2zm9.8-27.7h7.3c2.5 0 4.4-.6 5.6-1.6 1.2-1 1.8-2.5 1.8-4.3 0-2.2-.6-3.7-1.9-4.7-1.3-.9-3.2-1.4-5.9-1.4h-6.9v12zm0 7v12.9h8.4c1.3 0 2.4-.2 3.3-.5.9-.3 1.7-.8 2.3-1.3.6-.6 1.1-1.2 1.4-2 .3-.8.4-1.6.4-2.5 0-1-.1-1.9-.4-2.8-.3-.8-.7-1.5-1.2-2.1-.6-.6-1.3-1-2.2-1.3s-2-.5-3.2-.5h-8.8v.1zM964.8 122.7h-17.2l-3.3 9.8h-10.4l17.7-47.6h9.1l17.8 47.6h-10.4l-3.3-9.8zm-14.5-8h11.9l-6-17.8-5.9 17.8zM1026.1 132.5h-9.8v-20.4h-19.1v20.4h-9.8V84.9h9.8v19.3h19.1V84.9h9.8v47.6zM1066.5 122.7h-17.2l-3.3 9.8h-10.4l17.7-47.6h9.1l17.8 47.6h-10.4l-3.3-9.8zm-14.5-8h11.9l-6-17.8-5.9 17.8zM1101.9 84.9l12.2 34.5 12.2-34.5h12.9v47.6h-9.8v-13l1-22.5-12.9 35.5h-6.7L1097.9 97l1 22.4v13h-9.8V84.9h12.8zM1179.6 122.7h-17.2l-3.3 9.8h-10.4l17.7-47.6h9.1l17.8 47.6h-10.4l-3.3-9.8zm-14.5-8h11.9l-6-17.8-5.9 17.8zM1226.9 120c0-.8-.1-1.6-.4-2.2-.2-.7-.7-1.3-1.4-1.8-.7-.6-1.6-1.1-2.8-1.7-1.2-.5-2.8-1.1-4.7-1.7-2.2-.7-4.2-1.5-6.2-2.4-1.9-.9-3.6-1.9-5.1-3.1s-2.6-2.6-3.4-4.1-1.3-3.4-1.3-5.4.4-3.8 1.3-5.4 2.1-3 3.6-4.2c1.6-1.2 3.4-2.1 5.6-2.7 2.1-.6 4.5-1 7.1-1s5 .4 7.2 1.1 4 1.8 5.5 3.1 2.7 2.9 3.5 4.7c.8 1.8 1.2 3.8 1.2 5.9h-9.8c0-1-.2-1.9-.5-2.8s-.8-1.6-1.5-2.2-1.5-1.1-2.5-1.4-2.1-.5-3.5-.5c-1.3 0-2.4.1-3.4.4-.9.3-1.7.7-2.4 1.2-.6.5-1.1 1.1-1.4 1.8-.3.7-.5 1.4-.5 2.2 0 1.6.8 2.9 2.4 3.9 1.6 1.1 4 2 7 3 2.6.8 4.9 1.7 6.9 2.7s3.6 2.1 4.9 3.3 2.3 2.6 3 4.2c.7 1.5 1 3.3 1 5.3 0 2.1-.4 4-1.2 5.6-.8 1.6-2 3-3.5 4.1s-3.3 2-5.4 2.6-4.5.9-7.1.9c-1.6 0-3.1-.1-4.7-.4-1.6-.3-3.1-.7-4.5-1.3s-2.8-1.3-4-2.1-2.3-1.9-3.2-3c-.9-1.2-1.6-2.5-2.1-3.9-.5-1.5-.8-3.1-.8-4.9h9.8c0 1.4.2 2.7.7 3.7s1.1 1.8 1.9 2.4 1.8 1.1 3 1.4 2.4.4 3.9.4c1.3 0 2.4-.1 3.3-.4s1.7-.6 2.3-1.1c.6-.5 1.1-1.1 1.4-1.7.6-1 .8-1.7.8-2.5z"/></svg>