<svg xmlns="http://www.w3.org/2000/svg" xml:space="preserve" x="0" y="0" version="1.1" viewBox="0 0 1144 217.5" role="img" aria-label="COVID-19 API | Bahamas"><title>COVID-19 API | Bahamas</title><path d="M299.8 86.7c-.3 4-1.2 7.8-2.7 11.2s-3.6 6.3-6.3 8.7c-2.7 2.4-6 4.3-9.8 5.7-3.8 1.4-8.2 2.1-13.2 2.1-5.1 0-9.7-.9-13.8-2.7-4.1-1.8-7.5-4.3-10.3-7.6-2.8-3.3-5-7.3-6.5-12.1-1.5-4.7-2.3-10-2.3-15.9v-5.2c0-5.9.8-11.2 2.4-15.9 1.6-4.7 3.8-8.8 6.6-12.1 2.9-3.3 6.3-5.9 10.4-7.7s8.6-2.7 13.7-2.7c5 0 9.3.7 13.2 2.1 3.8 1.4 7 3.4 9.7 5.9s4.7 5.5 6.2 8.9 2.4 7.2 2.8 11.2h-16.4c-.2-2.4-.6-4.5-1.2-6.3s-1.6-3.4-2.8-4.6c-1.2-1.2-2.8-2.2-4.6-2.8-1.9-.6-4.2-1-6.9-1-5.5 0-9.7 2-12.4 6-2.7 4-4.1 10.3-4.1 18.7V76c0 4.1.3 7.7.9 10.8.6 3.1 1.5 5.7 2.8 7.8 1.3 2.1 3 3.6 5 4.7 2.1 1 4.5 1.6 7.5 1.6 2.6 0 4.8-.3 6.7-.9 1.9-.6 3.4-1.5 4.7-2.7 1.3-1.2 2.2-2.7 2.9-4.5.7-1.8 1.1-3.9 1.3-6.2l16.5.1zM376 75.2c0 6.1-.8 11.5-2.5 16.4-1.6 4.8-3.9 8.9-6.9 12.3s-6.5 5.9-10.7 7.7-8.7 2.7-13.7 2.7-9.6-.9-13.7-2.7-7.7-4.4-10.7-7.7c-3-3.4-5.4-7.4-7-12.3-1.7-4.8-2.5-10.3-2.5-16.4v-3.5c0-6.1.8-11.5 2.5-16.4 1.7-4.8 4-9 7-12.4s6.6-6 10.7-7.8 8.7-2.7 13.7-2.7 9.6.9 13.7 2.7 7.7 4.4 10.7 7.8c3 3.4 5.3 7.5 7 12.4 1.7 4.8 2.5 10.3 2.5 16.4v3.5h-.1zm-16.7-3.6c0-8.3-1.5-14.7-4.5-19s-7.3-6.5-12.8-6.5-9.8 2.2-12.8 6.5-4.5 10.7-4.5 19v3.6c0 4.2.4 7.8 1.2 11 .8 3.2 1.9 5.9 3.4 8 1.5 2.2 3.3 3.8 5.4 4.9 2.2 1.1 4.6 1.7 7.4 1.7 5.5 0 9.8-2.2 12.7-6.6s4.4-10.7 4.4-19.1l.1-3.5zM416.1 93.5l18-59.9h18.3l-27.7 79.6h-17.1l-27.7-79.6h18.2l18 59.9zM477.3 113.2h-16.4V33.6h16.4v79.6zM492.5 113.2V33.6H517c5.4 0 10.3.9 14.7 2.8 4.5 1.8 8.3 4.4 11.5 7.8 3.2 3.3 5.7 7.3 7.5 12s2.7 9.8 2.7 15.5v3.6c0 5.7-.9 10.9-2.7 15.5s-4.3 8.6-7.5 12-7.1 5.9-11.6 7.7c-4.5 1.8-9.4 2.7-14.8 2.7h-24.3zM509 46.9v53.2h7.9c6.5 0 11.4-2.1 14.8-6.4 3.4-4.3 5.1-10.4 5.1-18.3v-3.7c0-8.1-1.7-14.2-5-18.4-3.4-4.2-8.3-6.3-14.7-6.3H509v-.1zM595 85.5h-30.8V72.8H595v12.7zM645.5 113.2h-15.8V52.3l-18.9 5.9V45.3l33-11.8h1.7v79.7zM683.6 100.8c4 0 7.5-.4 10.4-1.3 3-.9 5.4-2.1 7.5-3.7s3.6-3.7 4.7-6.1c1.1-2.4 1.8-5.2 2.1-8.3-1.9 1.9-4.1 3.3-6.5 4.4s-5.1 1.6-7.9 1.6c-3.8 0-7.1-.7-10-2.1s-5.3-3.2-7.3-5.6-3.5-5.2-4.5-8.5-1.5-6.8-1.5-10.6c0-3.9.6-7.5 1.9-10.9 1.3-3.4 3-6.4 5.4-8.9 2.3-2.6 5.1-4.6 8.4-6.1 3.3-1.5 7-2.2 11.1-2.2s7.8.8 11.1 2.4c3.3 1.6 6.2 3.8 8.5 6.6s4.1 6.3 5.4 10.3c1.3 4 1.9 8.4 1.9 13.3v5.5c0 6.5-.8 12.5-2.5 17.8s-4.2 9.9-7.6 13.7c-3.4 3.8-7.6 6.8-12.7 8.8-5.1 2.1-11 3.1-17.8 3.1h-1.3v-13.2h1.2zm14.1-25.4c2.6 0 4.7-.7 6.6-2 1.8-1.3 3.2-2.9 4.2-4.8v-6.5c0-2.8-.3-5.3-.8-7.4-.6-2.1-1.4-3.9-2.4-5.3s-2.2-2.5-3.6-3.1c-1.4-.7-2.9-1-4.5-1-1.8 0-3.3.4-4.6 1.3-1.3.9-2.5 2-3.4 3.4s-1.6 3-2.1 4.9c-.5 1.8-.7 3.7-.7 5.7s.2 4 .7 5.7c.5 1.8 1.2 3.4 2.1 4.7s2.1 2.4 3.5 3.2c1.4.8 3.1 1.2 5 1.2zM270.6 168.8c-.6 5.1-2.4 8.9-5.4 11.6-3.1 2.7-7.2 4-12.3 4-3.6 0-6.7-.9-9.5-2.7-2.7-1.8-4.9-4.3-6.4-7.6s-2.3-7-2.3-11.2v-6.1c0-4.3.7-8.1 2.2-11.4 1.5-3.3 3.6-5.8 6.5-7.6 2.8-1.8 6-2.7 9.7-2.7 5.1 0 9.2 1.4 12.2 4.2s4.7 6.6 5.2 11.5h-4.1c-1-8.2-5.4-12.2-13.3-12.2-4.4 0-7.8 1.6-10.4 4.9-2.6 3.3-3.9 7.8-3.9 13.5v5.9c0 5.5 1.3 10 3.8 13.3s5.9 5 10.2 5c4.2 0 7.4-1 9.6-3.1 2.2-2 3.5-5.1 4-9.2l4.2-.1zM320.4 162.4c0 4.4-.8 8.3-2.3 11.6s-3.7 5.9-6.5 7.7-6.1 2.7-9.8 2.7c-5.6 0-10.1-2-13.6-6s-5.2-9.4-5.2-16.2v-4.9c0-4.4.8-8.3 2.3-11.6 1.6-3.4 3.7-6 6.6-7.8 2.8-1.8 6.1-2.7 9.8-2.7s7 .9 9.8 2.7 5 4.3 6.5 7.6 2.3 7 2.4 11.3v5.6zm-4.1-5.2c0-5.8-1.3-10.3-3.9-13.6s-6.2-4.9-10.8-4.9c-4.5 0-8 1.6-10.7 4.9-2.7 3.3-4 7.9-4 13.8v5c0 5.7 1.3 10.2 4 13.5 2.6 3.3 6.2 5 10.8 5 4.6 0 8.2-1.6 10.8-4.9 2.6-3.3 3.9-7.9 3.9-13.7l-.1-5.1zM353 163.8h-14v20h-4.1v-48h15.6c5.1 0 9.1 1.2 12 3.7s4.3 6 4.3 10.4c0 3.1-.9 5.8-2.7 8.1-1.8 2.4-4.2 4-7.3 4.9l12 20.5v.4h-4.3l-11.5-20zm-14-3.4h12.4c3.4 0 6.1-1 8.2-2.9s3.1-4.5 3.1-7.5c0-3.4-1.1-6-3.2-7.9-2.2-1.9-5.2-2.8-9.1-2.8H339v21.1zM417.8 162.4c0 4.4-.8 8.3-2.3 11.6s-3.7 5.9-6.5 7.7-6.1 2.7-9.8 2.7c-5.6 0-10.1-2-13.6-6s-5.2-9.4-5.2-16.2v-4.9c0-4.4.8-8.3 2.3-11.6 1.6-3.4 3.7-6 6.6-7.8 2.8-1.8 6.1-2.7 9.8-2.7s7 .9 9.8 2.7 5 4.3 6.5 7.6 2.3 7 2.4 11.3v5.6zm-4.1-5.2c0-5.8-1.3-10.3-3.9-13.6s-6.2-4.9-10.8-4.9c-4.5 0-8 1.6-10.7 4.9-2.7 3.3-4 7.9-4 13.8v5c0 5.7 1.3 10.2 4 13.5 2.6 3.3 6.2 5 10.8 5 4.6 0 8.2-1.6 10.8-4.9 2.6-3.3 3.9-7.9 3.9-13.7l-.1-5.1zM468.2 183.8h-4.1l-27.6-41.1v41.1h-4.1v-48h4.1l27.6 41.1v-41.1h4v48h.1zM510.7 170.3h-21.8l-4.9 13.5h-4.3l18.2-48h3.9l18.2 48h-4.2l-5.1-13.5zm-20.5-3.4h19.3l-9.6-26.2-9.7 26.2zM543 177.9l.3 1 .3-1 15.1-42.1h4.5l-17.9 48h-3.9l-17.9-48h4.4l15.1 42.1zM579.5 183.8h-4.1v-48h4.1v48zM614.9 163.8h-14v20h-4.1v-48h15.6c5.1 0 9.1 1.2 12 3.7s4.3 6 4.3 10.4c0 3.1-.9 5.8-2.7 8.1-1.8 2.4-4.2 4-7.3 4.9l12 20.5v.4h-4.3l-11.5-20zm-14-3.4h12.4c3.4 0 6.1-1 8.2-2.9 2.1-1.9 3.1-4.5 3.1-7.5 0-3.4-1.1-6-3.2-7.9-2.2-1.9-5.2-2.8-9.1-2.8h-11.4v21.1zM677.3 135.8v32.8c0 3.2-.7 6-2.1 8.4-1.4 2.4-3.4 4.2-6 5.5s-5.5 1.9-8.8 1.9c-5.1 0-9.1-1.4-12.2-4.1-3-2.8-4.6-6.6-4.7-11.5v-33h4v32.5c0 4 1.2 7.2 3.5 9.4s5.4 3.3 9.4 3.3 7.1-1.1 9.4-3.4c2.3-2.2 3.4-5.4 3.4-9.4v-32.4h4.1zM720.2 172c0-2.7-.9-4.8-2.8-6.3-1.9-1.6-5.3-3-10.3-4.4s-8.6-2.9-10.9-4.6c-3.3-2.3-4.9-5.4-4.9-9.2 0-3.7 1.5-6.7 4.5-9s6.9-3.4 11.6-3.4c3.2 0 6 .6 8.6 1.8 2.5 1.2 4.5 2.9 5.9 5.1 1.4 2.2 2.1 4.7 2.1 7.4h-4.1c0-3.3-1.1-5.9-3.4-7.9-2.2-2-5.3-3-9-3s-6.6.8-8.8 2.5c-2.2 1.6-3.3 3.8-3.3 6.4 0 2.4 1 4.4 2.9 6 2 1.5 5.1 2.9 9.4 4.1 4.3 1.2 7.6 2.4 9.8 3.7s3.9 2.8 5 4.5c1.1 1.8 1.7 3.8 1.7 6.2 0 3.8-1.5 6.8-4.5 9.1s-7 3.4-12 3.4c-3.4 0-6.5-.6-9.3-1.8s-5-2.9-6.4-5.1c-1.5-2.2-2.2-4.7-2.2-7.5h4.1c0 3.4 1.3 6.1 3.8 8 2.5 2 5.9 2.9 10.1 2.9 3.7 0 6.7-.8 9-2.5 2.3-1.5 3.4-3.7 3.4-6.4z" fill="#092d74"/><radialGradient id="SVGID_1_" cx="97.42" cy="-868.702" r="103.245" gradientTransform="matrix(1 0 0 -1 0 -760)" gradientUnits="userSpaceOnUse"><stop offset="0" stop-color="#e5edfe"/><stop offset="1" stop-color="#092d74"/></radialGradient><path fill="url(#SVGID_1_)" d="M194.8 160.1c-.5-6.1-4.8-10.3-11.6-11.9-7.1-1.7-14.3-3.4-21.1-5.9-5.2-1.9-10.2-4.8-14.8-7.8-1.5-1-2.6-4.1-2.3-6.1.4-3.2 2.1-6.3 3.5-10.2 7.2 3.2 13.4 3.1 18.4-2.8 3.3-4 3.9-8.6 1.5-13.2-4-7.8-10.9-8-18-6.4-2.3-8.1-4.5-15.8-7-24.3 5.4-.9 10.7-1.8 16-2.8 6.2-1.1 10.5-5.1 11.5-10.7 1-5.9-1.9-11.6-7.2-13.9-5.9-2.6-12.3-.8-16.4 4.8-3.3 4.4-6.4 9-9.5 13.3-5.6-5.1-10.2-9.9-15.3-13.9-3.1-2.4-3.6-4.9-1.6-7.6 3.2-4.3 6.8-8.4 10.6-12.3 1.8-1.9 4.2-3.1 6.2-4.9 4.4-3.9 5.8-10.2 3.5-15.4-2-4.7-7.9-8.6-12.4-8.1-5.3.6-10.7 5.6-11.8 11.4-.5 2.9-.2 6-.8 8.9-1.2 5.3-2.5 10.5-4.3 15.6-.6 1.5-3.2 3.6-4.4 3.4-6.3-1.2-12.6-3-19.2-4.8.8-2 1.5-3.7 2.1-5.5 2.3-6.3.7-12.5-4.2-16.2-4.8-3.5-10.9-3.4-15.3.1-5 3.9-6.4 10.5-3.6 16.8.9 2 1.9 3.9 2.9 6.1-4.4 1.4-8.2 2.5-11.8 3.9-6.3 2.3-9.1 1.6-12.2-4.5-1.6-3.1-2.7-6.6-3.6-10-1-4-1.1-8.2-2.1-12.2-1.9-7.4-9.6-11.6-16.7-9.2C17 6 13.2 14 16.4 20.8c1.3 2.9 4.1 5.1 6.6 7.4 4.8 4.4 10.4 8.1 14.7 12.9s3.5 8-1.1 12.6c-2.4 2.4-4.4 5.2-6.8 7.5-1.7 1.5-3.7 3-5.9 3.6-9.1 2.3-13 10.8-8.5 19.2 3.2 6 2.5 7.4-4.1 8.6-7 1.2-11.6 6.6-11.3 13.3.3 6.9 5.7 11.9 13 12.2 1.4.1 2.9.2 4.1.2 2.3 6.4 4.5 11.8 1.7 18.9-3.2 7.9 4.2 15.3 13.2 14.9 10.4-.5 15.3 7 10.5 16.2-1.6 3.2-3.5 6.3-5.8 9-5 5.8-10.2 11.5-15.5 17-4.7 4.9-6.1 11.1-3.4 16.4 2.5 4.9 7.5 7.4 13.2 6.6 5.8-.8 9.8-5.2 11.1-11.9 1-5.2 1.6-10.5 3.2-15.4 2.2-6.7 4.9-13.4 8.1-19.7 1-2 4.4-4.2 6.4-4 4.9.5 9.7 2.4 14.5 3.7-.2 12.8 4.4 19.3 13.2 18.9 8.9-.5 12.5-6.9 11.3-20.4 3.6-1.4 7.5-2.4 10.9-4.3 4.3-2.4 6.4-.6 7.3 3.3 1.4 6 2.5 12.1 3.7 18.2 1.2 5.9 5.6 10.1 11.4 10.9 5.4.7 10.7-2.1 12.9-7 2.5-5.4 1.2-11.9-3.6-15.8-2.7-2.3-6-3.8-8.8-6.1-3.6-3-6.9-6.5-10.5-9.9 3.5-3.3 6.2-5.6 8.7-8.2 7-7.2 9.3-8 17.4-1.7 8.1 6.2 15.5 13.6 22.8 20.8 5 5 10.5 6.9 16.1 4.4 5.2-2.5 8.2-7.5 7.7-13zM94 115.4c-.6-.4-1.1-.8-1.6-1.2.5.4 1.1.8 1.6 1.2zm-58.9 3.8c-4.8 0-9.2-4.3-8.9-8.9.2-4.4 2.9-6.8 7.2-7 4.6-.3 9.3 4.1 9.3 8.6.1 3.9-3.4 7.3-7.6 7.3zm8.1-50.7c-.1-9.6 8.4-18.6 17.6-18.5 7.3.1 12.7 6 12.6 13.7-.1 9.5-8.4 18.2-17.3 18.2-7.2.1-12.8-5.8-12.9-13.4zm60.7 82.6c-2.9 1.4-6.1 2.1-9.3 2.4-10.3 1.1-20.9-1.8-29.2-7.8-4.7-3.4-8.8-8-10.1-13.7-1.6-7.3 2.6-13.7 9.2-16.5 15.3-6.5 33.9-.9 44.1 12 2.5 3.2 4.6 6.9 4.5 10.9-.1 4.3-2.7 8.4-6.2 10.9-1 .7-2 1.3-3 1.8z"/><path d="M774.3 32.4h4v152h-4zM906.5 156h-50.2l-8.8 28.4h-39.1l55.7-152h34.5l56.2 152h-39.4l-8.9-28.4zM865 127.8h32.7L881.3 75 865 127.8zM1002.4 132.9v51.6h-36.6v-152h60.7c11.6 0 21.9 2.1 30.9 6.4 8.9 4.3 15.9 10.4 20.8 18.3s7.4 16.9 7.4 26.9c0 14.8-5.3 26.7-15.9 35.5-10.6 8.9-25.2 13.3-43.7 13.3h-23.6zm0-28.3h24c7.1 0 12.5-1.8 16.2-5.3s5.6-8.6 5.6-15c0-7.1-1.9-12.8-5.7-17-3.8-4.2-9-6.4-15.7-6.5h-24.4v43.8zM1144 184.4h-36.5v-152h36.5v152z" fill="#092d74"/></svg>