<svg xmlns="http://www.w3.org/2000/svg" viewBox="0 0 1453.7 375.3" xml:space="preserve" role="img" aria-label="HUGO Static Site Generator"><title>HUGO Static Site Generator</title><path d="M324.5 109.1c-.1-.5-.1-.9-.2-1.4-1.8-12.9-9.4-24.4-20.8-31.1L183.5 6c-13.7-8.1-30.7-7.9-44.2.4L20.6 78.9C7.7 86.7-.1 100.8 0 115.9L1.2 262c.1 15.1 8.2 29 21.2 36.7l120 70.6c13.7 8.1 30.7 7.9 44.2-.4l118.8-72.6c12.9-7.9 20.7-21.9 20.6-37l-1.2-146.1c-.1-1.3-.2-2.7-.3-4.1zm-82.4 184.6h-43.5v-90.6h-71.9v90.6H83.3V86.5h43.4V162h71.9V86.5h43.5v207.2zM679.5 76.6 559.6 6c-13.7-8.1-30.7-7.9-44.2.4L396.5 78.9c-1.4.9-2.8 1.8-4.1 2.8-7.9 6.2-13.3 14.8-15.5 24.5-.7 3.2-1.1 6.4-1.1 9.7L377 262c.1 15.1 8.2 29 21.2 36.7l120 70.6c3.2 1.9 6.6 3.3 10.1 4.3 11.4 3.2 23.8 1.7 34.1-4.7l51-31.2 67.8-41.4c12.9-7.9 20.7-21.9 20.6-37l-1.2-146.1c0-15-8.1-28.9-21.1-36.6zM621.2 202c0 24.9-1.1 42.4-3.2 52.7-2.1 10.3-6.1 18.9-11.8 26s-13.4 12.7-23 16.9-22.2 6.3-37.6 6.3c-18.7 0-32.9-2.3-42.5-6.8-9.7-4.6-17.3-10.5-22.9-17.8s-9.3-15-11.1-23c-2.6-11.9-3.9-29.4-3.9-52.6V93.2h42.1v112.2c0 17.8.5 29.3 1.5 34.6 1.7 8.5 4.8 14.4 11.2 19.5s13.8 6.6 24.8 6.6c11.2 0 15-1.7 20.7-6.6s9.1-9.5 10.3-16.5c1.2-7.1 3.1-18.8 3.1-35.2V93.2h42.3V202zM1055.4 76.6 935.5 6c-13.7-8.1-30.7-7.9-44.2.4L772.5 78.9c-12.9 7.9-20.7 21.9-20.6 37L753 262c.1 15.1 8.2 29 21.2 36.7l120 70.6c4.1 2.4 8.4 4.1 12.9 5 10.6 2.2 21.8.5 31.3-5.4l38.9-23.8 79.9-48.8c12.9-7.9 20.7-21.9 20.6-37l-1.2-146.1c-.1-15-8.1-28.9-21.2-36.6zm-36.2 111.2c0 47.2-8.9 60.9-26.8 80.6-17.9 19.7-41.6 27.6-71.1 27.6-27 0-48.8-9.6-67.6-26.2-20.9-18.4-36.1-47-36.1-78.9-.1-31.5 11.6-58.6 32.4-78.8 18.2-17.7 45.3-29.2 73.3-29.2 33.8 0 68.8 16 90.4 47.5L982 157.3c-13.5-25-32.9-33.5-60.8-34.3-30.8-.9-64.8 28.5-62.2 67.8 1.4 21.9 11.6 59.6 61 66.6 25.9 3.6 55.4-24 55.4-39h-48.7v-37.6h92.5v7zM1452.6 113.3c-.1-15.1-8.2-29-21.2-36.7L1311.4 6c-9.9-5.8-21.5-7.3-32.3-4.6-2.5.6-5 1.5-7.5 2.6-1.5.7-3 1.5-4.4 2.3l-118.8 72.6c-5.8 3.5-10.6 8.4-14.1 13.9-3.6 5.7-5.8 12.2-6.3 19.1-.1 1.3-.2 2.7-.2 4L1129 262c.1 15.1 8.2 29 21.2 36.7l120 70.6c4.6 2.7 9.5 4.4 14.5 5.3 10.1 1.7 20.7-.1 29.7-5.7l34-20.8 84.8-51.8c12.9-7.9 20.7-21.9 20.6-37l-1.2-146zM1294.5 296c-58.8 0-106.5-47.7-106.5-106.5S1235.7 83 1294.5 83 1401 130.7 1401 189.5 1353.3 296 1294.5 296z"/><circle cx="1294.5" cy="189.5" r="66.9"/></svg>