<svg xmlns="http://www.w3.org/2000/svg" viewBox="0 0 917 156" xml:space="preserve" role="img" aria-label="Joseph Pinder"><title>Joseph Pinder</title><path d="M229 89.2c0 3.1-.3 6.2-.8 9.1s-1.6 5.6-3.1 7.8c-1.5 2.3-3.7 4.1-6.6 5.5-2.8 1.4-6.6 2.1-11.2 2.1-5.4 0-9.9-1.3-13.6-3.8-3.7-2.6-6.1-6.6-7.2-12l13.7-3.4c.2 1.7.9 3.1 2.3 4.2 1.3 1.2 2.8 1.7 4.5 1.7s3.1-.4 4-1.3c1-.9 1.7-1.9 2.1-3.2.4-1.3.7-2.7.8-4.2s.1-2.9.1-4.2V44h15v45.2zM238.3 78c0-5.4.9-10.4 2.7-14.8s4.4-8.2 7.6-11.3c3.3-3.1 7.1-5.5 11.6-7.2s9.4-2.5 14.7-2.5c5.3 0 10.2.8 14.7 2.5s8.4 4 11.6 7.2c3.3 3.1 5.8 6.9 7.6 11.3 1.8 4.4 2.7 9.3 2.7 14.8 0 5.4-.9 10.4-2.7 14.8-1.8 4.4-4.4 8.2-7.6 11.3-3.3 3.1-7.1 5.5-11.6 7.2s-9.4 2.5-14.7 2.5c-5.3 0-10.2-.8-14.7-2.5s-8.4-4-11.6-7.2c-3.3-3.1-5.8-6.9-7.6-11.3s-2.7-9.4-2.7-14.8zm15.5 0c0 3.2.5 6.1 1.5 8.8 1 2.7 2.4 5 4.3 6.9 1.9 2 4.1 3.5 6.7 4.6s5.5 1.6 8.7 1.6 6.1-.5 8.7-1.6 4.8-2.6 6.7-4.6c1.9-2 3.3-4.3 4.3-6.9 1-2.7 1.5-5.6 1.5-8.8 0-3.1-.5-6-1.5-8.7s-2.4-5-4.3-7-4.1-3.5-6.7-4.6-5.5-1.6-8.7-1.6-6.1.5-8.7 1.6-4.8 2.6-6.7 4.6c-1.9 2-3.3 4.3-4.3 7s-1.5 5.6-1.5 8.7zM355.4 60.6c-1.2-1.5-2.9-2.7-4.9-3.4-2.1-.7-4-1.1-5.9-1.1-1.1 0-2.2.1-3.4.4-1.2.3-2.2.7-3.3 1.2-1 .5-1.9 1.3-2.5 2.2s-1 2-1 3.3c0 2 .8 3.6 2.3 4.7s3.5 2 5.8 2.8 4.8 1.5 7.5 2.3 5.2 1.9 7.5 3.3 4.3 3.3 5.8 5.7c1.5 2.4 2.3 5.5 2.3 9.5 0 3.8-.7 7.1-2.1 9.9s-3.3 5.2-5.7 7c-2.4 1.9-5.2 3.2-8.4 4.1s-6.5 1.3-10 1.3c-4.4 0-8.5-.7-12.3-2s-7.3-3.5-10.6-6.5l10.7-11.7c1.5 2 3.5 3.6 5.8 4.8 2.3 1.1 4.8 1.7 7.2 1.7 1.2 0 2.4-.1 3.7-.4 1.2-.3 2.4-.7 3.4-1.3 1-.6 1.8-1.3 2.4-2.2.6-.9.9-2 .9-3.2 0-2-.8-3.7-2.4-4.8-1.6-1.2-3.5-2.2-5.9-3s-4.9-1.7-7.7-2.5-5.3-2-7.7-3.4c-2.4-1.4-4.3-3.3-5.9-5.6-1.6-2.3-2.4-5.3-2.4-9.1 0-3.6.7-6.8 2.2-9.6 1.4-2.8 3.4-5.1 5.8-6.9 2.4-1.9 5.2-3.2 8.3-4.2 3.1-.9 6.4-1.4 9.7-1.4 3.8 0 7.6.5 11.1 1.6 3.6 1.1 6.8 2.9 9.7 5.5l-10 11zM377.5 44h46.2v13.8h-31.2v12.7H422v13.8h-29.5v13.8h32.9V112h-47.9V44zM437.4 44h25.2c3.5 0 6.8.3 10 1 3.1.6 5.9 1.7 8.2 3.3 2.3 1.6 4.2 3.7 5.6 6.3 1.4 2.7 2.1 6 2.1 10s-.6 7.3-1.9 10-3 4.8-5.3 6.4c-2.2 1.6-4.9 2.7-8 3.4-3.1.7-6.4 1-10 1h-10.9V112h-15V44zm14.9 28.8h10c1.3 0 2.6-.1 3.9-.4 1.2-.3 2.4-.7 3.4-1.3 1-.6 1.8-1.4 2.4-2.5s.9-2.4.9-4c0-1.7-.4-3.1-1.2-4.2-.8-1.1-1.8-1.9-3.1-2.4-1.2-.6-2.6-.9-4.2-1.1-1.5-.2-3-.2-4.4-.2h-7.7v16.1zM497.8 44h15v25.3h29.1V44h15v68h-15V82.6h-29.1V112h-15V44zM573.1 42.3h20.6c2.5 0 5.1.3 7.8.9 2.7.6 5.2 1.6 7.5 3s4.1 3.3 5.5 5.8 2.2 5.5 2.2 9.2c0 3.2-.6 6-1.8 8.4s-2.8 4.3-4.7 5.8c-2 1.5-4.3 2.6-6.9 3.4-2.6.7-5.3 1.1-8.1 1.1h-15.4v33.9h-6.7V42.3zm6.7 31.5h15.1c1.9 0 3.7-.2 5.5-.7 1.8-.4 3.4-1.1 4.8-2.1s2.6-2.3 3.4-3.9c.9-1.6 1.3-3.6 1.3-6 0-2.3-.5-4.2-1.4-5.9-.9-1.6-2.1-2.9-3.5-4-1.4-1-3.1-1.8-5-2.3s-3.8-.7-5.6-.7h-14.7v25.6h.1zM631 42.3h6.7v71.4H631V42.3zM657.2 42.3h8.6l43.5 62.5h.2V42.3h6.7v71.4h-8.6l-43.5-62.5h-.2v62.5h-6.7V42.3zM734.8 42.3h22.1c6.2 0 11.4.8 15.7 2.3s7.9 3.4 10.7 5.8c2.9 2.4 5.1 5 6.8 7.8 1.6 2.9 2.9 5.6 3.6 8.2.8 2.6 1.3 5 1.5 7.1s.3 3.6.3 4.5-.1 2.4-.3 4.5-.7 4.5-1.5 7.1-2 5.4-3.6 8.2c-1.6 2.9-3.9 5.5-6.8 7.8-2.9 2.4-6.4 4.3-10.7 5.8s-9.6 2.3-15.7 2.3h-22.1V42.3zm6.7 65.4h13.7c4.7 0 9.1-.6 13.2-1.8 4.1-1.2 7.7-3 10.7-5.4s5.4-5.5 7.2-9.2c1.7-3.7 2.6-8.2 2.6-13.3 0-5.1-.9-9.5-2.6-13.3-1.7-3.7-4.1-6.8-7.2-9.2-3-2.4-6.6-4.2-10.7-5.4-4.1-1.2-8.5-1.8-13.2-1.8h-13.7v59.4zM810.5 42.3h43.7v6.1h-37v25.4h34.7v6.1h-34.7v27.8h38.6v6.1h-45.3V42.3zM870.3 42.3h18.8c.9 0 2.2 0 3.8.1s3.4.3 5.2.6c1.9.3 3.8.9 5.8 1.6 1.9.7 3.7 1.8 5.2 3.2s2.8 3.2 3.8 5.3c1 2.2 1.5 4.8 1.5 7.9 0 3.4-.6 6.3-1.8 8.5-1.2 2.2-2.7 4-4.4 5.4-1.8 1.4-3.7 2.4-5.9 3.1s-4.2 1.1-6.2 1.4l20.8 34.3h-7.6l-20.1-33.9H877v33.9h-6.7V42.3zm6.7 31.5h14.1c3.5 0 6.3-.4 8.5-1.3s3.9-1.9 5.1-3.2c1.2-1.3 2-2.7 2.5-4.1.4-1.5.7-2.8.7-4s-.2-2.6-.7-4c-.4-1.5-1.3-2.9-2.5-4.1-1.2-1.3-2.9-2.4-5.1-3.2-2.2-.9-5-1.3-8.5-1.3H877v25.2zM111.4 57.2c-1.2-.6-2.6-.9-4.2-1.1-1.5-.2-3-.2-4.4-.2h-7.7V72h10c1.3 0 2.6-.1 3.9-.4 1.2-.3 2.4-.7 3.4-1.3 1-.6 1.8-1.4 2.4-2.5s.9-2.4.9-4c0-1.7-.4-3.1-1.2-4.2-.8-1-1.8-1.9-3.1-2.4z"/><path d="M0 0v156h156V0H0zm67.3 88.4c0 3.1-.3 6.2-.8 9.1s-1.6 5.6-3.1 7.8c-1.5 2.3-3.7 4.1-6.6 5.5-2.8 1.4-6.6 2.1-11.2 2.1-5.4 0-9.9-1.3-13.6-3.8-3.7-2.6-6.1-6.6-7.2-12l13.7-3.4c.2 1.7.9 3.1 2.3 4.2 1.3 1.2 2.8 1.7 4.5 1.7s3.1-.4 4-1.3c1-.9 1.7-1.9 2.1-3.2.4-1.3.7-2.7.8-4.2s.1-2.9.1-4.2V43.2h15v45.2zm62-14.6c-1.3 2.7-3 4.8-5.3 6.4-2.2 1.6-4.9 2.7-8 3.4-3.1.7-6.4 1-10 1H95.1v26.5h-15v-68h25.2c3.5 0 6.8.3 10 1 3.1.6 5.9 1.7 8.2 3.3 2.3 1.6 4.2 3.7 5.6 6.3 1.4 2.7 2.1 6 2.1 10 0 4.1-.6 7.4-1.9 10.1z"/></svg>