<svg xmlns="http://www.w3.org/2000/svg" viewBox="0 0 300 79.5" xml:space="preserve" role="img" aria-label="Netlify"><title>Netlify</title><path d="M120.5 24.1c-4.7 0-8.4 1.7-11.3 5.2l-.3-4.5h-8.2v38.9h8.7V36.1c1.7-3.2 4.3-4.8 7.9-4.8 2.4 0 4.2.6 5.2 1.8 1.1 1.2 1.6 3 1.6 5.5v25.2h8.7V38.1c-.1-9.3-4.2-14-12.3-14zM157.8 24.1c-3.3 0-6.3.9-9 2.6s-4.8 4.1-6.3 7.1c-1.5 3.1-2.2 6.5-2.2 10.4v1.1c0 5.8 1.7 10.5 5.2 13.9 3.4 3.5 7.9 5.2 13.4 5.2 3.2 0 6.1-.6 8.7-1.9 2.6-1.3 4.7-3.1 6.2-5.4l-4.7-4.5c-2.5 3.2-5.8 4.9-9.8 4.9-2.8 0-5.2-.9-7.1-2.8s-2.9-4.4-3.2-7.6h25.4v-3.5c0-6.2-1.4-11-4.3-14.4-2.9-3.4-7-5.1-12.3-5.1zm8 16.6h-16.6c.4-3 1.3-5.3 2.8-7s3.4-2.5 5.8-2.5 4.3.7 5.7 2.2 2.1 3.7 2.3 6.6v.7zM193 56.3c-.6-.7-.9-1.7-.9-3.2V31.3h6.9v-6.5h-6.9v-9.5h-8.7v9.5H177v6.5h6.4v22.1c0 7.4 3.4 11.1 10 11.1 1.8 0 3.8-.3 5.7-.8v-6.8c-1 .2-2 .4-3 .4-1.5 0-2.5-.4-3.1-1zM206.2 8.5h8.7v55.3h-8.7zM225 24.9h8.7v38.9H225zM229.3 10.1c-1.6 0-2.8.4-3.6 1.3-.8.9-1.3 2-1.3 3.3 0 1.3.4 2.4 1.3 3.3.9.9 2.1 1.3 3.6 1.3 1.6 0 2.8-.4 3.7-1.3s1.3-2 1.3-3.3-.4-2.5-1.3-3.3c-.9-.9-2.1-1.3-3.7-1.3zM249.8 11.3c-2.4 2.4-3.6 5.7-3.6 10v3.6h-5.9v6.5h5.9v32.4h8.7V31.3h7.9v-6.5H255v-3.5c0-4.3 2.1-6.4 6.2-6.4 1.1 0 2.2.1 3.3.3l.2-6.8c-1.7-.4-3.4-.6-4.9-.6-4.2 0-7.6 1.2-10 3.5zM290.7 24.9l-7.9 26.4-8.2-26.4h-9.4l13.6 38.7-1.3 3.3c-.6 1.9-1.5 3.2-2.6 4s-2.8 1.2-5 1.2l-1.7-.1v6.8c1.5.4 2.9.6 4.2.6 5.7 0 9.7-3.3 12.1-9.8L300 24.9h-9.3zM56.8 27.2c.4.2.8.5 1 .8h.1l7.7-3.3-7.4-7.4-1.5 9.7c0 .1 0 .1.1.2-.1 0 0 0 0 0zM75.5 34.6l-7.9-7.9-8.1 3.4c-.1 0-.2.1-.2.1s.1.1.2.1l19 8c0-.1-.1-.3-.1-.4-.4-.9-1.3-1.7-2.9-3.3zM58.3 32.6c-.1 0-.1-.1-.2 0l-.1.1c-.6.8-1.4 1.2-2.4 1.4-.1 0-.1.1-.1.2l-2.2 13.4v.2c.8.6 1.3 1.5 1.3 2.4 0 .1.1.1.2.1h.1l11.6 2.4 8.9-8.9c1.4-1.4 2.1-2.2 2.6-2.9l-19.7-8.4zM54.1 52.8c-.1 0-.1.1-.2.1-.4.5-.9.8-1.4 1.1-.1 0-.1 0-.1.1v.1l-2.5 15.5L64.6 55l-10.5-2.2zM47.6 51.5s0-.1 0 0l-.2-.2-20.3-4.2H27l-.1.1v.1c-.1.1-.1.2-.2.3v.1s0 .1.1.1L45 74.4l1.7-1.7c.6-3.6 2.8-17 3-18.5v-.1c0-.1.1-.1 0-.2-1-.4-1.8-1.3-2.1-2.4zM43.2 76.2zM24.7 49.4h-.2c-1.1.4-2.2.5-3.4.2h-.2l-.1.1-4.8 7.5 18.4 18.4c1.6 1.6 2.5 2.5 3.4 2.8.8.3 1.7.3 2.5 0s1.5-.9 2.8-2.1L24.7 49.4c.1 0 .1 0 0 0zM19 48.1c-.1-.2-.2-.3-.3-.4 0-.1-.1-.1-.1-.1h-.1l-8.3 3.6 4.2 4.2 4.6-7.1v-.2zM17.2 45.5c.1 0 .2-.1.2-.2s-.1-.1-.2-.1h-.1L.9 41.8c.5.6 1.1 1.2 2 2.1l5.3 5.3 9-3.7zM0 39zM18.3 42.9s.1 0 0 0c.1 0 .2-.1.2-.1.2-.4.5-.8.8-1.1.1-.1 0-.1-.1-.2-3.2-4.6-6.3-9.1-9.5-13.7L3 34.6C1.3 36.2.5 37 .2 38c-.1.3-.2.7-.2 1l18.3 3.9zM21.6 40.4h.1c.4-.1.7-.1 1.1-.1s.7.1 1.1.2h.2l.1-.1 9.3-14.5c.1-.1.1-.2.1-.2-1-1-1.4-2.4-1.1-3.7v-.1c0-.1-.1-.1-.1-.1-.6-.3-2.5-1.1-4.7-2-2.8-1.2-6-2.5-6.8-2.9l-9.2 9.2 9.9 14.3c-.1-.1-.1-.1 0 0zM33.8 19.5c1.1-.9 2.6-1.2 3.9-.8h.2l.1-.1 8.5-13.1L43.9 3C42.3 1.4 41.4.5 40.5.2c-.8-.3-1.7-.3-2.5 0-1 .3-1.8 1.1-3.4 2.8L22.7 14.9c1.2.5 9.8 4.2 10.9 4.6.1 0 .2.1.2 0zM40 20.5c.3.6.6 1.2.6 1.9 0 .1.1.1.2.1l11.9 5.1h.1s.1 0 .1-.1c.3-.2.7-.4 1.1-.6 0 0 .1 0 .1-.1v-.1L56 15l-7.8-7.8-8.3 12.9c0 .2.1.3.1.4zM51.5 30.8v-.3c0-.2 0-.4.1-.5v-.1c0-.1-.1-.1-.2-.1L40.2 25H40l-.1.1c-.8 1.2-2.1 1.8-3.5 1.8-.2 0-.4 0-.6-.1h-.1c-.1 0-.2.1-.2.2l-9.2 14.2c-.1.1-.1.2-.1.2h.1s23.1-9.8 24.9-10.6c.2.1.3 0 .3 0zM47.8 48.9l.2-.1c.6-1 1.6-1.7 2.8-1.7.1 0 .1-.1.1-.2v-.1l2.2-13.2v-.1c0-.1-.1-.1-.1-.1h-.1c-.1-.1-.2-.2-.4-.3h-.1l-25 10.6.3 1.1 20.1 4.1z"/></svg>