<svg class="page__icon" xmlns="http://www.w3.org/2000/svg" viewBox="0 0 65 65" role="img"><title>Next Page</title><path d="M55.6 65H9.4C4.2 65 0 60.8 0 55.6V9.4C0 4.2 4.2 0 9.4 0h46.2C60.8 0 65 4.2 65 9.4v46.2c0 5.2-4.2 9.4-9.4 9.4zM9.4 3.8c-3.1 0-5.7 2.5-5.7 5.7v46.2c0 3.1 2.5 5.7 5.7 5.7h46.2c3.1 0 5.7-2.5 5.7-5.7V9.4c0-3.1-2.5-5.7-5.7-5.7H9.4z"></path><path class="arrow" d="M44.4 34.7L25.1 54.1c-1.2 1.2-3.2 1.2-4.5 0-1.2-1.2-1.2-3.2 0-4.5l17.1-17.1-17.1-17.1c-1.2-1.2-1.2-3.2 0-4.5 1.2-1.2 3.2-1.2 4.5 0l19.3 19.3c.6.6.9 1.4.9 2.2 0 .9-.3 1.7-.9 2.3z"></path></svg>